<mxfile>
    <diagram id="20nkSrXpSlib3IfHccSi" name="Page-1">
        <mxGraphModel dx="898" dy="539" grid="1" gridSize="10" guides="1" tooltips="1" connect="1" arrows="1" fold="1" page="1" pageScale="1" pageWidth="850" pageHeight="1100" background="#ffffff" math="0" shadow="0">
            <root>
                <mxCell id="0"/>
                <mxCell id="1" parent="0"/>
                <mxCell id="31" value="" style="rounded=0;whiteSpace=wrap;html=1;fillColor=none;" parent="1" vertex="1">
                    <mxGeometry x="50" y="50" width="730" height="400" as="geometry"/>
                </mxCell>
                <mxCell id="10" value="" style="rounded=0;whiteSpace=wrap;html=1;fillColor=none;" parent="1" vertex="1">
                    <mxGeometry x="110" y="165" width="250" height="190" as="geometry"/>
                </mxCell>
                <mxCell id="11" value="" style="rounded=0;whiteSpace=wrap;html=1;fillColor=none;" parent="1" vertex="1">
                    <mxGeometry x="470" y="100" width="290" height="320" as="geometry"/>
                </mxCell>
                <mxCell id="13" value="I.A. Model" style="text;html=1;strokeColor=none;fillColor=none;align=center;verticalAlign=middle;whiteSpace=wrap;rounded=0;" parent="1" vertex="1">
                    <mxGeometry x="490" y="110" width="150" height="10" as="geometry"/>
                </mxCell>
                <mxCell id="19" style="edgeStyle=orthogonalEdgeStyle;rounded=0;orthogonalLoop=1;jettySize=auto;html=1;exitX=0.5;exitY=1;exitDx=0;exitDy=0;" parent="1" source="15" target="16" edge="1">
                    <mxGeometry relative="1" as="geometry"/>
                </mxCell>
                <mxCell id="15" value="Data Preprocessing" style="rounded=1;whiteSpace=wrap;html=1;" parent="1" vertex="1">
                    <mxGeometry x="560" y="180" width="110" height="50" as="geometry"/>
                </mxCell>
                <mxCell id="29" style="edgeStyle=orthogonalEdgeStyle;rounded=0;orthogonalLoop=1;jettySize=auto;html=1;exitX=0;exitY=0.5;exitDx=0;exitDy=0;entryX=1;entryY=0.5;entryDx=0;entryDy=0;" parent="1" source="16" target="28" edge="1">
                    <mxGeometry relative="1" as="geometry"/>
                </mxCell>
                <mxCell id="16" value="Trained Model" style="rounded=1;whiteSpace=wrap;html=1;" parent="1" vertex="1">
                    <mxGeometry x="560" y="300" width="110" height="50" as="geometry"/>
                </mxCell>
                <mxCell id="21" value="Processed Data" style="text;html=1;strokeColor=none;fillColor=none;align=center;verticalAlign=middle;whiteSpace=wrap;rounded=0;" parent="1" vertex="1">
                    <mxGeometry x="620" y="250" width="100" height="20" as="geometry"/>
                </mxCell>
                <mxCell id="23" value="User Interface" style="text;html=1;strokeColor=none;fillColor=none;align=center;verticalAlign=middle;whiteSpace=wrap;rounded=0;" parent="1" vertex="1">
                    <mxGeometry x="120" y="170" width="150" height="10" as="geometry"/>
                </mxCell>
                <mxCell id="25" style="edgeStyle=orthogonalEdgeStyle;rounded=0;orthogonalLoop=1;jettySize=auto;html=1;exitX=1;exitY=0.5;exitDx=0;exitDy=0;" parent="1" source="24" target="15" edge="1">
                    <mxGeometry relative="1" as="geometry"/>
                </mxCell>
                <mxCell id="24" value="Data Acquisition" style="rounded=1;whiteSpace=wrap;html=1;" parent="1" vertex="1">
                    <mxGeometry x="185" y="210" width="100" height="35" as="geometry"/>
                </mxCell>
                <mxCell id="26" value="Live Camera Feed" style="text;html=1;strokeColor=none;fillColor=none;align=center;verticalAlign=middle;whiteSpace=wrap;rounded=0;" parent="1" vertex="1">
                    <mxGeometry x="370" y="170" width="90" height="20" as="geometry"/>
                </mxCell>
                <mxCell id="28" value="Data Display" style="rounded=1;whiteSpace=wrap;html=1;" parent="1" vertex="1">
                    <mxGeometry x="185" y="280" width="100" height="35" as="geometry"/>
                </mxCell>
                <mxCell id="30" value="Prediction" style="text;html=1;strokeColor=none;fillColor=none;align=center;verticalAlign=middle;whiteSpace=wrap;rounded=0;" parent="1" vertex="1">
                    <mxGeometry x="380" y="270" width="70" height="20" as="geometry"/>
                </mxCell>
                <mxCell id="32" value="&lt;span style=&quot;color: rgb(240 , 240 , 240) ; font-family: &amp;#34;helvetica&amp;#34; ; font-size: 12px ; font-style: normal ; font-weight: 400 ; letter-spacing: normal ; text-align: center ; text-indent: 0px ; text-transform: none ; word-spacing: 0px ; background-color: rgb(42 , 42 , 42) ; display: inline ; float: none&quot;&gt;caos_guitar_recognition_system&lt;/span&gt;" style="text;whiteSpace=wrap;html=1;" parent="1" vertex="1">
                    <mxGeometry x="60" y="60" width="190" height="30" as="geometry"/>
                </mxCell>
            </root>
        </mxGraphModel>
    </diagram>
    <diagram id="CCXbwsdyUIm-6ViN5FTC" name="Page-2">
        <mxGraphModel dx="898" dy="539" grid="1" gridSize="10" guides="1" tooltips="1" connect="1" arrows="1" fold="1" page="1" pageScale="1" pageWidth="1100" pageHeight="850" background="none" math="0" shadow="0">
            <root>
                <mxCell id="hMNfzLspHZgP8_cELCTe-0"/>
                <mxCell id="hMNfzLspHZgP8_cELCTe-1" parent="hMNfzLspHZgP8_cELCTe-0"/>
                <mxCell id="Docw-y9LkuyaCuBhA3g9-0" value="" style="whiteSpace=wrap;html=1;aspect=fixed;" parent="hMNfzLspHZgP8_cELCTe-1" vertex="1">
                    <mxGeometry x="220" y="244" width="100" height="100" as="geometry"/>
                </mxCell>
                <mxCell id="Docw-y9LkuyaCuBhA3g9-126" style="edgeStyle=orthogonalEdgeStyle;rounded=0;orthogonalLoop=1;jettySize=auto;html=1;exitX=1;exitY=0.5;exitDx=0;exitDy=0;entryX=0;entryY=0.75;entryDx=0;entryDy=0;fontSize=9;" parent="hMNfzLspHZgP8_cELCTe-1" source="Docw-y9LkuyaCuBhA3g9-18" target="Docw-y9LkuyaCuBhA3g9-0" edge="1">
                    <mxGeometry relative="1" as="geometry"/>
                </mxCell>
                <mxCell id="Docw-y9LkuyaCuBhA3g9-18" value="" style="whiteSpace=wrap;html=1;aspect=fixed;" parent="hMNfzLspHZgP8_cELCTe-1" vertex="1">
                    <mxGeometry x="45" y="260" width="120" height="120" as="geometry"/>
                </mxCell>
                <mxCell id="Docw-y9LkuyaCuBhA3g9-19" value="Conv (32, (3,3), Relu)" style="text;html=1;strokeColor=none;fillColor=none;align=center;verticalAlign=middle;whiteSpace=wrap;rounded=0;fontSize=9;" parent="hMNfzLspHZgP8_cELCTe-1" vertex="1">
                    <mxGeometry x="215" y="190" width="130" height="20" as="geometry"/>
                </mxCell>
                <mxCell id="Docw-y9LkuyaCuBhA3g9-20" value="input_shape = (150,150,3)" style="text;html=1;strokeColor=none;fillColor=none;align=center;verticalAlign=middle;whiteSpace=wrap;rounded=0;fontSize=9;" parent="hMNfzLspHZgP8_cELCTe-1" vertex="1">
                    <mxGeometry x="30" y="190" width="150" height="20" as="geometry"/>
                </mxCell>
                <mxCell id="Docw-y9LkuyaCuBhA3g9-149" style="edgeStyle=orthogonalEdgeStyle;rounded=0;orthogonalLoop=1;jettySize=auto;html=1;exitX=1;exitY=0.25;exitDx=0;exitDy=0;entryX=0;entryY=0.75;entryDx=0;entryDy=0;fontSize=9;" parent="hMNfzLspHZgP8_cELCTe-1" source="Docw-y9LkuyaCuBhA3g9-21" target="Docw-y9LkuyaCuBhA3g9-29" edge="1">
                    <mxGeometry relative="1" as="geometry"/>
                </mxCell>
                <mxCell id="Docw-y9LkuyaCuBhA3g9-21" value="" style="whiteSpace=wrap;html=1;aspect=fixed;fontSize=9;" parent="hMNfzLspHZgP8_cELCTe-1" vertex="1">
                    <mxGeometry x="425" y="279.5" width="80" height="80" as="geometry"/>
                </mxCell>
                <mxCell id="Docw-y9LkuyaCuBhA3g9-22" value="MaxPooling2D(2,2)&amp;nbsp;" style="text;html=1;strokeColor=none;fillColor=none;align=center;verticalAlign=middle;whiteSpace=wrap;rounded=0;fontSize=9;" parent="hMNfzLspHZgP8_cELCTe-1" vertex="1">
                    <mxGeometry x="445" y="190" width="40" height="20" as="geometry"/>
                </mxCell>
                <mxCell id="Docw-y9LkuyaCuBhA3g9-23" value="" style="whiteSpace=wrap;html=1;aspect=fixed;" parent="hMNfzLspHZgP8_cELCTe-1" vertex="1">
                    <mxGeometry x="230" y="254" width="100" height="100" as="geometry"/>
                </mxCell>
                <mxCell id="Docw-y9LkuyaCuBhA3g9-24" value="" style="whiteSpace=wrap;html=1;aspect=fixed;" parent="hMNfzLspHZgP8_cELCTe-1" vertex="1">
                    <mxGeometry x="240" y="264" width="100" height="100" as="geometry"/>
                </mxCell>
                <mxCell id="Docw-y9LkuyaCuBhA3g9-25" value="" style="whiteSpace=wrap;html=1;aspect=fixed;" parent="hMNfzLspHZgP8_cELCTe-1" vertex="1">
                    <mxGeometry x="250" y="274" width="100" height="100" as="geometry"/>
                </mxCell>
                <mxCell id="Docw-y9LkuyaCuBhA3g9-26" value="" style="whiteSpace=wrap;html=1;aspect=fixed;" parent="hMNfzLspHZgP8_cELCTe-1" vertex="1">
                    <mxGeometry x="260" y="284" width="100" height="100" as="geometry"/>
                </mxCell>
                <mxCell id="Docw-y9LkuyaCuBhA3g9-127" style="edgeStyle=orthogonalEdgeStyle;rounded=0;orthogonalLoop=1;jettySize=auto;html=1;exitX=1;exitY=0.25;exitDx=0;exitDy=0;entryX=0;entryY=0.5;entryDx=0;entryDy=0;fontSize=9;" parent="hMNfzLspHZgP8_cELCTe-1" source="Docw-y9LkuyaCuBhA3g9-27" target="Docw-y9LkuyaCuBhA3g9-21" edge="1">
                    <mxGeometry relative="1" as="geometry"/>
                </mxCell>
                <mxCell id="Docw-y9LkuyaCuBhA3g9-27" value="" style="whiteSpace=wrap;html=1;aspect=fixed;" parent="hMNfzLspHZgP8_cELCTe-1" vertex="1">
                    <mxGeometry x="270" y="294" width="100" height="100" as="geometry"/>
                </mxCell>
                <mxCell id="Docw-y9LkuyaCuBhA3g9-29" value="" style="whiteSpace=wrap;html=1;aspect=fixed;" parent="hMNfzLspHZgP8_cELCTe-1" vertex="1">
                    <mxGeometry x="540" y="240.5" width="80" height="80" as="geometry"/>
                </mxCell>
                <mxCell id="Docw-y9LkuyaCuBhA3g9-30" value="" style="whiteSpace=wrap;html=1;aspect=fixed;" parent="hMNfzLspHZgP8_cELCTe-1" vertex="1">
                    <mxGeometry x="550" y="250.5" width="80" height="80" as="geometry"/>
                </mxCell>
                <mxCell id="Docw-y9LkuyaCuBhA3g9-146" style="edgeStyle=orthogonalEdgeStyle;rounded=0;orthogonalLoop=1;jettySize=auto;html=1;exitX=1;exitY=0.5;exitDx=0;exitDy=0;entryX=0;entryY=0.5;entryDx=0;entryDy=0;fontSize=9;" parent="hMNfzLspHZgP8_cELCTe-1" source="Docw-y9LkuyaCuBhA3g9-31" target="Docw-y9LkuyaCuBhA3g9-36" edge="1">
                    <mxGeometry relative="1" as="geometry"/>
                </mxCell>
                <mxCell id="Docw-y9LkuyaCuBhA3g9-31" value="" style="whiteSpace=wrap;html=1;aspect=fixed;" parent="hMNfzLspHZgP8_cELCTe-1" vertex="1">
                    <mxGeometry x="560" y="260.5" width="80" height="80" as="geometry"/>
                </mxCell>
                <mxCell id="Docw-y9LkuyaCuBhA3g9-35" value="Conv (64, (3,3), Relu)" style="text;html=1;strokeColor=none;fillColor=none;align=center;verticalAlign=middle;whiteSpace=wrap;rounded=0;fontSize=9;" parent="hMNfzLspHZgP8_cELCTe-1" vertex="1">
                    <mxGeometry x="535" y="190" width="130" height="20" as="geometry"/>
                </mxCell>
                <mxCell id="Docw-y9LkuyaCuBhA3g9-145" style="edgeStyle=orthogonalEdgeStyle;rounded=0;orthogonalLoop=1;jettySize=auto;html=1;exitX=1;exitY=0.5;exitDx=0;exitDy=0;entryX=0;entryY=0.75;entryDx=0;entryDy=0;fontSize=9;" parent="hMNfzLspHZgP8_cELCTe-1" source="Docw-y9LkuyaCuBhA3g9-36" target="Docw-y9LkuyaCuBhA3g9-38" edge="1">
                    <mxGeometry relative="1" as="geometry"/>
                </mxCell>
                <mxCell id="Docw-y9LkuyaCuBhA3g9-36" value="" style="whiteSpace=wrap;html=1;aspect=fixed;fontSize=9;" parent="hMNfzLspHZgP8_cELCTe-1" vertex="1">
                    <mxGeometry x="702.5" y="262" width="75" height="75" as="geometry"/>
                </mxCell>
                <mxCell id="Docw-y9LkuyaCuBhA3g9-37" value="MaxPooling2D(2,2)&amp;nbsp;" style="text;html=1;strokeColor=none;fillColor=none;align=center;verticalAlign=middle;whiteSpace=wrap;rounded=0;fontSize=9;" parent="hMNfzLspHZgP8_cELCTe-1" vertex="1">
                    <mxGeometry x="720" y="190" width="40" height="20" as="geometry"/>
                </mxCell>
                <mxCell id="Docw-y9LkuyaCuBhA3g9-38" value="" style="whiteSpace=wrap;html=1;aspect=fixed;fontSize=9;" parent="hMNfzLspHZgP8_cELCTe-1" vertex="1">
                    <mxGeometry x="820" y="254" width="60" height="60" as="geometry"/>
                </mxCell>
                <mxCell id="Docw-y9LkuyaCuBhA3g9-39" value="" style="whiteSpace=wrap;html=1;aspect=fixed;fontSize=9;" parent="hMNfzLspHZgP8_cELCTe-1" vertex="1">
                    <mxGeometry x="830" y="264" width="60" height="60" as="geometry"/>
                </mxCell>
                <mxCell id="Docw-y9LkuyaCuBhA3g9-40" value="" style="whiteSpace=wrap;html=1;aspect=fixed;fontSize=9;" parent="hMNfzLspHZgP8_cELCTe-1" vertex="1">
                    <mxGeometry x="840" y="274" width="60" height="60" as="geometry"/>
                </mxCell>
                <mxCell id="Docw-y9LkuyaCuBhA3g9-41" value="" style="whiteSpace=wrap;html=1;aspect=fixed;fontSize=9;" parent="hMNfzLspHZgP8_cELCTe-1" vertex="1">
                    <mxGeometry x="850" y="284" width="60" height="60" as="geometry"/>
                </mxCell>
                <mxCell id="Docw-y9LkuyaCuBhA3g9-133" style="edgeStyle=orthogonalEdgeStyle;rounded=0;orthogonalLoop=1;jettySize=auto;html=1;exitX=1;exitY=0.25;exitDx=0;exitDy=0;entryX=0;entryY=0.5;entryDx=0;entryDy=0;fontSize=9;" parent="hMNfzLspHZgP8_cELCTe-1" source="Docw-y9LkuyaCuBhA3g9-41" target="Docw-y9LkuyaCuBhA3g9-44" edge="1">
                    <mxGeometry relative="1" as="geometry"/>
                </mxCell>
                <mxCell id="Docw-y9LkuyaCuBhA3g9-42" value="" style="whiteSpace=wrap;html=1;aspect=fixed;fontSize=9;" parent="hMNfzLspHZgP8_cELCTe-1" vertex="1">
                    <mxGeometry x="860" y="294" width="60" height="60" as="geometry"/>
                </mxCell>
                <mxCell id="Docw-y9LkuyaCuBhA3g9-43" value="Conv (128, (3,3), Relu)" style="text;html=1;strokeColor=none;fillColor=none;align=center;verticalAlign=middle;whiteSpace=wrap;rounded=0;fontSize=9;" parent="hMNfzLspHZgP8_cELCTe-1" vertex="1">
                    <mxGeometry x="790" y="190" width="130" height="20" as="geometry"/>
                </mxCell>
                <mxCell id="Docw-y9LkuyaCuBhA3g9-144" style="edgeStyle=orthogonalEdgeStyle;rounded=0;orthogonalLoop=1;jettySize=auto;html=1;exitX=1;exitY=0.5;exitDx=0;exitDy=0;entryX=0.02;entryY=0.65;entryDx=0;entryDy=0;entryPerimeter=0;fontSize=9;" parent="hMNfzLspHZgP8_cELCTe-1" source="Docw-y9LkuyaCuBhA3g9-44" target="Docw-y9LkuyaCuBhA3g9-47" edge="1">
                    <mxGeometry relative="1" as="geometry"/>
                </mxCell>
                <mxCell id="Docw-y9LkuyaCuBhA3g9-44" value="" style="whiteSpace=wrap;html=1;aspect=fixed;fontSize=9;" parent="hMNfzLspHZgP8_cELCTe-1" vertex="1">
                    <mxGeometry x="960" y="275" width="50" height="50" as="geometry"/>
                </mxCell>
                <mxCell id="Docw-y9LkuyaCuBhA3g9-45" value="MaxPooling2D(2,2)&amp;nbsp;" style="text;html=1;strokeColor=none;fillColor=none;align=center;verticalAlign=middle;whiteSpace=wrap;rounded=0;fontSize=9;" parent="hMNfzLspHZgP8_cELCTe-1" vertex="1">
                    <mxGeometry x="960" y="190" width="40" height="20" as="geometry"/>
                </mxCell>
                <mxCell id="Docw-y9LkuyaCuBhA3g9-46" value="" style="whiteSpace=wrap;html=1;aspect=fixed;fontSize=9;" parent="hMNfzLspHZgP8_cELCTe-1" vertex="1">
                    <mxGeometry x="1049" y="257.5" width="50" height="50" as="geometry"/>
                </mxCell>
                <mxCell id="Docw-y9LkuyaCuBhA3g9-47" value="" style="whiteSpace=wrap;html=1;aspect=fixed;fontSize=9;" parent="hMNfzLspHZgP8_cELCTe-1" vertex="1">
                    <mxGeometry x="1059" y="267.5" width="50" height="50" as="geometry"/>
                </mxCell>
                <mxCell id="Docw-y9LkuyaCuBhA3g9-48" value="" style="whiteSpace=wrap;html=1;aspect=fixed;fontSize=9;" parent="hMNfzLspHZgP8_cELCTe-1" vertex="1">
                    <mxGeometry x="1069" y="277.5" width="50" height="50" as="geometry"/>
                </mxCell>
                <mxCell id="Docw-y9LkuyaCuBhA3g9-143" style="edgeStyle=orthogonalEdgeStyle;rounded=0;orthogonalLoop=1;jettySize=auto;html=1;exitX=1;exitY=0.25;exitDx=0;exitDy=0;entryX=0;entryY=0.5;entryDx=0;entryDy=0;fontSize=9;" parent="hMNfzLspHZgP8_cELCTe-1" source="Docw-y9LkuyaCuBhA3g9-49" target="Docw-y9LkuyaCuBhA3g9-52" edge="1">
                    <mxGeometry relative="1" as="geometry"/>
                </mxCell>
                <mxCell id="Docw-y9LkuyaCuBhA3g9-49" value="" style="whiteSpace=wrap;html=1;aspect=fixed;fontSize=9;" parent="hMNfzLspHZgP8_cELCTe-1" vertex="1">
                    <mxGeometry x="1079" y="287.5" width="50" height="50" as="geometry"/>
                </mxCell>
                <mxCell id="Docw-y9LkuyaCuBhA3g9-50" value="" style="whiteSpace=wrap;html=1;aspect=fixed;fontSize=9;" parent="hMNfzLspHZgP8_cELCTe-1" vertex="1">
                    <mxGeometry x="1089" y="297.5" width="50" height="50" as="geometry"/>
                </mxCell>
                <mxCell id="Docw-y9LkuyaCuBhA3g9-51" value="Conv (128, (3,3), Relu)" style="text;html=1;strokeColor=none;fillColor=none;align=center;verticalAlign=middle;whiteSpace=wrap;rounded=0;fontSize=9;" parent="hMNfzLspHZgP8_cELCTe-1" vertex="1">
                    <mxGeometry x="1030" y="190" width="130" height="20" as="geometry"/>
                </mxCell>
                <mxCell id="Docw-y9LkuyaCuBhA3g9-140" style="edgeStyle=orthogonalEdgeStyle;rounded=0;orthogonalLoop=1;jettySize=auto;html=1;exitX=1;exitY=0.5;exitDx=0;exitDy=0;fontSize=9;" parent="hMNfzLspHZgP8_cELCTe-1" source="Docw-y9LkuyaCuBhA3g9-52" edge="1">
                    <mxGeometry relative="1" as="geometry">
                        <mxPoint x="1259.9999999999998" y="299.72413793103453" as="targetPoint"/>
                    </mxGeometry>
                </mxCell>
                <mxCell id="Docw-y9LkuyaCuBhA3g9-52" value="" style="whiteSpace=wrap;html=1;aspect=fixed;fontSize=9;" parent="hMNfzLspHZgP8_cELCTe-1" vertex="1">
                    <mxGeometry x="1180" y="279.5" width="40" height="40" as="geometry"/>
                </mxCell>
                <mxCell id="Docw-y9LkuyaCuBhA3g9-53" value="MaxPooling2D(2,2)&amp;nbsp;" style="text;html=1;strokeColor=none;fillColor=none;align=center;verticalAlign=middle;whiteSpace=wrap;rounded=0;fontSize=9;" parent="hMNfzLspHZgP8_cELCTe-1" vertex="1">
                    <mxGeometry x="1190" y="190" width="40" height="20" as="geometry"/>
                </mxCell>
                <mxCell id="Docw-y9LkuyaCuBhA3g9-54" value="" style="whiteSpace=wrap;html=1;aspect=fixed;fontSize=9;" parent="hMNfzLspHZgP8_cELCTe-1" vertex="1">
                    <mxGeometry x="1260" y="259.5" width="40" height="40" as="geometry"/>
                </mxCell>
                <mxCell id="Docw-y9LkuyaCuBhA3g9-55" value="" style="whiteSpace=wrap;html=1;aspect=fixed;fontSize=9;" parent="hMNfzLspHZgP8_cELCTe-1" vertex="1">
                    <mxGeometry x="1270" y="269.5" width="40" height="40" as="geometry"/>
                </mxCell>
                <mxCell id="Docw-y9LkuyaCuBhA3g9-56" value="" style="whiteSpace=wrap;html=1;aspect=fixed;fontSize=9;" parent="hMNfzLspHZgP8_cELCTe-1" vertex="1">
                    <mxGeometry x="1280" y="279.5" width="40" height="40" as="geometry"/>
                </mxCell>
                <mxCell id="Docw-y9LkuyaCuBhA3g9-139" style="edgeStyle=orthogonalEdgeStyle;rounded=0;orthogonalLoop=1;jettySize=auto;html=1;exitX=1;exitY=0.25;exitDx=0;exitDy=0;entryX=0;entryY=0.5;entryDx=0;entryDy=0;fontSize=9;" parent="hMNfzLspHZgP8_cELCTe-1" source="Docw-y9LkuyaCuBhA3g9-57" target="Docw-y9LkuyaCuBhA3g9-61" edge="1">
                    <mxGeometry relative="1" as="geometry"/>
                </mxCell>
                <mxCell id="Docw-y9LkuyaCuBhA3g9-57" value="" style="whiteSpace=wrap;html=1;aspect=fixed;fontSize=9;" parent="hMNfzLspHZgP8_cELCTe-1" vertex="1">
                    <mxGeometry x="1290" y="289.5" width="40" height="40" as="geometry"/>
                </mxCell>
                <mxCell id="Docw-y9LkuyaCuBhA3g9-58" value="" style="whiteSpace=wrap;html=1;aspect=fixed;fontSize=9;" parent="hMNfzLspHZgP8_cELCTe-1" vertex="1">
                    <mxGeometry x="1300" y="299.5" width="40" height="40" as="geometry"/>
                </mxCell>
                <mxCell id="Docw-y9LkuyaCuBhA3g9-59" value="Conv (256, (3,3), Relu)" style="text;html=1;strokeColor=none;fillColor=none;align=center;verticalAlign=middle;whiteSpace=wrap;rounded=0;fontSize=9;" parent="hMNfzLspHZgP8_cELCTe-1" vertex="1">
                    <mxGeometry x="1250" y="190" width="130" height="20" as="geometry"/>
                </mxCell>
                <mxCell id="Docw-y9LkuyaCuBhA3g9-60" value="MaxPooling2D(2,2)&amp;nbsp;" style="text;html=1;strokeColor=none;fillColor=none;align=center;verticalAlign=middle;whiteSpace=wrap;rounded=0;fontSize=9;" parent="hMNfzLspHZgP8_cELCTe-1" vertex="1">
                    <mxGeometry x="1407.5" y="190" width="40" height="20" as="geometry"/>
                </mxCell>
                <mxCell id="Docw-y9LkuyaCuBhA3g9-61" value="" style="whiteSpace=wrap;html=1;aspect=fixed;fontSize=9;" parent="hMNfzLspHZgP8_cELCTe-1" vertex="1">
                    <mxGeometry x="1406.5" y="282" width="35" height="35" as="geometry"/>
                </mxCell>
                <mxCell id="Docw-y9LkuyaCuBhA3g9-62" value="512" style="ellipse;whiteSpace=wrap;html=1;aspect=fixed;fontSize=9;" parent="hMNfzLspHZgP8_cELCTe-1" vertex="1">
                    <mxGeometry x="1510" y="364" width="20" height="20" as="geometry"/>
                </mxCell>
                <mxCell id="Docw-y9LkuyaCuBhA3g9-63" value="1" style="ellipse;whiteSpace=wrap;html=1;aspect=fixed;fontSize=9;" parent="hMNfzLspHZgP8_cELCTe-1" vertex="1">
                    <mxGeometry x="1510" y="214" width="20" height="20" as="geometry"/>
                </mxCell>
                <mxCell id="Docw-y9LkuyaCuBhA3g9-64" value="2" style="ellipse;whiteSpace=wrap;html=1;aspect=fixed;fontSize=9;" parent="hMNfzLspHZgP8_cELCTe-1" vertex="1">
                    <mxGeometry x="1510" y="244" width="20" height="20" as="geometry"/>
                </mxCell>
                <mxCell id="Docw-y9LkuyaCuBhA3g9-66" value="..." style="ellipse;whiteSpace=wrap;html=1;aspect=fixed;fontSize=9;" parent="hMNfzLspHZgP8_cELCTe-1" vertex="1">
                    <mxGeometry x="1510" y="274" width="20" height="20" as="geometry"/>
                </mxCell>
                <mxCell id="Docw-y9LkuyaCuBhA3g9-67" value="511" style="ellipse;whiteSpace=wrap;html=1;aspect=fixed;fontSize=9;" parent="hMNfzLspHZgP8_cELCTe-1" vertex="1">
                    <mxGeometry x="1510" y="334" width="20" height="20" as="geometry"/>
                </mxCell>
                <mxCell id="Docw-y9LkuyaCuBhA3g9-68" value="Dense (512, Relu)" style="text;html=1;strokeColor=none;fillColor=none;align=center;verticalAlign=middle;whiteSpace=wrap;rounded=0;fontSize=9;" parent="hMNfzLspHZgP8_cELCTe-1" vertex="1">
                    <mxGeometry x="1450" y="190" width="130" height="20" as="geometry"/>
                </mxCell>
                <mxCell id="Docw-y9LkuyaCuBhA3g9-69" value="..." style="ellipse;whiteSpace=wrap;html=1;aspect=fixed;fontSize=9;" parent="hMNfzLspHZgP8_cELCTe-1" vertex="1">
                    <mxGeometry x="1510" y="304" width="20" height="20" as="geometry"/>
                </mxCell>
                <mxCell id="Docw-y9LkuyaCuBhA3g9-70" value="6" style="ellipse;whiteSpace=wrap;html=1;aspect=fixed;fontSize=9;" parent="hMNfzLspHZgP8_cELCTe-1" vertex="1">
                    <mxGeometry x="1610" y="364" width="20" height="20" as="geometry"/>
                </mxCell>
                <mxCell id="Docw-y9LkuyaCuBhA3g9-71" value="1" style="ellipse;whiteSpace=wrap;html=1;aspect=fixed;fontSize=9;" parent="hMNfzLspHZgP8_cELCTe-1" vertex="1">
                    <mxGeometry x="1610" y="214" width="20" height="20" as="geometry"/>
                </mxCell>
                <mxCell id="Docw-y9LkuyaCuBhA3g9-72" value="2" style="ellipse;whiteSpace=wrap;html=1;aspect=fixed;fontSize=9;" parent="hMNfzLspHZgP8_cELCTe-1" vertex="1">
                    <mxGeometry x="1610" y="244" width="20" height="20" as="geometry"/>
                </mxCell>
                <mxCell id="Docw-y9LkuyaCuBhA3g9-73" value="3" style="ellipse;whiteSpace=wrap;html=1;aspect=fixed;fontSize=9;" parent="hMNfzLspHZgP8_cELCTe-1" vertex="1">
                    <mxGeometry x="1610" y="274" width="20" height="20" as="geometry"/>
                </mxCell>
                <mxCell id="Docw-y9LkuyaCuBhA3g9-74" value="5" style="ellipse;whiteSpace=wrap;html=1;aspect=fixed;fontSize=9;" parent="hMNfzLspHZgP8_cELCTe-1" vertex="1">
                    <mxGeometry x="1610" y="334" width="20" height="20" as="geometry"/>
                </mxCell>
                <mxCell id="Docw-y9LkuyaCuBhA3g9-75" value="4" style="ellipse;whiteSpace=wrap;html=1;aspect=fixed;fontSize=9;" parent="hMNfzLspHZgP8_cELCTe-1" vertex="1">
                    <mxGeometry x="1610" y="304" width="20" height="20" as="geometry"/>
                </mxCell>
                <mxCell id="Docw-y9LkuyaCuBhA3g9-76" value="Dense (6, Sigmoid)" style="text;html=1;strokeColor=none;fillColor=none;align=center;verticalAlign=middle;whiteSpace=wrap;rounded=0;fontSize=9;" parent="hMNfzLspHZgP8_cELCTe-1" vertex="1">
                    <mxGeometry x="1555" y="190" width="130" height="20" as="geometry"/>
                </mxCell>
                <mxCell id="Docw-y9LkuyaCuBhA3g9-78" value="" style="endArrow=none;html=1;fontSize=9;entryX=0;entryY=0.5;entryDx=0;entryDy=0;exitX=1;exitY=0.5;exitDx=0;exitDy=0;" parent="hMNfzLspHZgP8_cELCTe-1" source="Docw-y9LkuyaCuBhA3g9-63" target="Docw-y9LkuyaCuBhA3g9-71" edge="1">
                    <mxGeometry width="50" height="50" relative="1" as="geometry">
                        <mxPoint x="1450" y="384" as="sourcePoint"/>
                        <mxPoint x="1500" y="334" as="targetPoint"/>
                    </mxGeometry>
                </mxCell>
                <mxCell id="Docw-y9LkuyaCuBhA3g9-79" value="" style="endArrow=none;html=1;fontSize=9;entryX=0;entryY=0.5;entryDx=0;entryDy=0;exitX=1;exitY=0.5;exitDx=0;exitDy=0;" parent="hMNfzLspHZgP8_cELCTe-1" source="Docw-y9LkuyaCuBhA3g9-64" target="Docw-y9LkuyaCuBhA3g9-72" edge="1">
                    <mxGeometry width="50" height="50" relative="1" as="geometry">
                        <mxPoint x="1540" y="234" as="sourcePoint"/>
                        <mxPoint x="1620" y="234" as="targetPoint"/>
                    </mxGeometry>
                </mxCell>
                <mxCell id="Docw-y9LkuyaCuBhA3g9-80" value="" style="endArrow=none;html=1;fontSize=9;entryX=0;entryY=0.5;entryDx=0;entryDy=0;" parent="hMNfzLspHZgP8_cELCTe-1" source="Docw-y9LkuyaCuBhA3g9-66" target="Docw-y9LkuyaCuBhA3g9-73" edge="1">
                    <mxGeometry width="50" height="50" relative="1" as="geometry">
                        <mxPoint x="1540" y="264" as="sourcePoint"/>
                        <mxPoint x="1620" y="264" as="targetPoint"/>
                    </mxGeometry>
                </mxCell>
                <mxCell id="Docw-y9LkuyaCuBhA3g9-81" value="" style="endArrow=none;html=1;fontSize=9;entryX=0;entryY=0.5;entryDx=0;entryDy=0;exitX=1;exitY=0.5;exitDx=0;exitDy=0;" parent="hMNfzLspHZgP8_cELCTe-1" source="Docw-y9LkuyaCuBhA3g9-69" target="Docw-y9LkuyaCuBhA3g9-75" edge="1">
                    <mxGeometry width="50" height="50" relative="1" as="geometry">
                        <mxPoint x="1430" y="364" as="sourcePoint"/>
                        <mxPoint x="1480" y="314" as="targetPoint"/>
                    </mxGeometry>
                </mxCell>
                <mxCell id="Docw-y9LkuyaCuBhA3g9-82" value="" style="endArrow=none;html=1;fontSize=9;entryX=0;entryY=0.5;entryDx=0;entryDy=0;exitX=1;exitY=0.5;exitDx=0;exitDy=0;" parent="hMNfzLspHZgP8_cELCTe-1" source="Docw-y9LkuyaCuBhA3g9-67" target="Docw-y9LkuyaCuBhA3g9-74" edge="1">
                    <mxGeometry width="50" height="50" relative="1" as="geometry">
                        <mxPoint x="1450" y="384" as="sourcePoint"/>
                        <mxPoint x="1500" y="334" as="targetPoint"/>
                    </mxGeometry>
                </mxCell>
                <mxCell id="Docw-y9LkuyaCuBhA3g9-83" value="" style="endArrow=none;html=1;fontSize=9;entryX=0;entryY=0.5;entryDx=0;entryDy=0;exitX=1;exitY=0.5;exitDx=0;exitDy=0;" parent="hMNfzLspHZgP8_cELCTe-1" source="Docw-y9LkuyaCuBhA3g9-62" target="Docw-y9LkuyaCuBhA3g9-70" edge="1">
                    <mxGeometry width="50" height="50" relative="1" as="geometry">
                        <mxPoint x="1430" y="404" as="sourcePoint"/>
                        <mxPoint x="1480" y="354" as="targetPoint"/>
                    </mxGeometry>
                </mxCell>
                <mxCell id="Docw-y9LkuyaCuBhA3g9-84" value="" style="endArrow=none;html=1;fontSize=9;entryX=0;entryY=0.5;entryDx=0;entryDy=0;exitX=1;exitY=0.5;exitDx=0;exitDy=0;" parent="hMNfzLspHZgP8_cELCTe-1" source="Docw-y9LkuyaCuBhA3g9-63" target="Docw-y9LkuyaCuBhA3g9-72" edge="1">
                    <mxGeometry width="50" height="50" relative="1" as="geometry">
                        <mxPoint x="1410" y="414" as="sourcePoint"/>
                        <mxPoint x="1460" y="364" as="targetPoint"/>
                    </mxGeometry>
                </mxCell>
                <mxCell id="Docw-y9LkuyaCuBhA3g9-85" value="" style="endArrow=none;html=1;fontSize=9;entryX=0;entryY=0.5;entryDx=0;entryDy=0;exitX=1;exitY=0.5;exitDx=0;exitDy=0;" parent="hMNfzLspHZgP8_cELCTe-1" source="Docw-y9LkuyaCuBhA3g9-63" target="Docw-y9LkuyaCuBhA3g9-73" edge="1">
                    <mxGeometry width="50" height="50" relative="1" as="geometry">
                        <mxPoint x="1530" y="404" as="sourcePoint"/>
                        <mxPoint x="1580" y="354" as="targetPoint"/>
                    </mxGeometry>
                </mxCell>
                <mxCell id="Docw-y9LkuyaCuBhA3g9-86" value="" style="endArrow=none;html=1;fontSize=9;entryX=0;entryY=0.5;entryDx=0;entryDy=0;" parent="hMNfzLspHZgP8_cELCTe-1" target="Docw-y9LkuyaCuBhA3g9-75" edge="1">
                    <mxGeometry width="50" height="50" relative="1" as="geometry">
                        <mxPoint x="1530" y="224" as="sourcePoint"/>
                        <mxPoint x="1580" y="354" as="targetPoint"/>
                    </mxGeometry>
                </mxCell>
                <mxCell id="Docw-y9LkuyaCuBhA3g9-87" value="" style="endArrow=none;html=1;fontSize=9;entryX=0;entryY=0.5;entryDx=0;entryDy=0;exitX=1;exitY=0.5;exitDx=0;exitDy=0;" parent="hMNfzLspHZgP8_cELCTe-1" source="Docw-y9LkuyaCuBhA3g9-63" target="Docw-y9LkuyaCuBhA3g9-74" edge="1">
                    <mxGeometry width="50" height="50" relative="1" as="geometry">
                        <mxPoint x="1540" y="234" as="sourcePoint"/>
                        <mxPoint x="1620" y="324" as="targetPoint"/>
                    </mxGeometry>
                </mxCell>
                <mxCell id="Docw-y9LkuyaCuBhA3g9-88" value="" style="endArrow=none;html=1;fontSize=9;entryX=0;entryY=0.5;entryDx=0;entryDy=0;exitX=1;exitY=0.5;exitDx=0;exitDy=0;" parent="hMNfzLspHZgP8_cELCTe-1" source="Docw-y9LkuyaCuBhA3g9-63" target="Docw-y9LkuyaCuBhA3g9-70" edge="1">
                    <mxGeometry width="50" height="50" relative="1" as="geometry">
                        <mxPoint x="1540" y="234" as="sourcePoint"/>
                        <mxPoint x="1620" y="354.0000000000001" as="targetPoint"/>
                    </mxGeometry>
                </mxCell>
                <mxCell id="Docw-y9LkuyaCuBhA3g9-89" value="" style="endArrow=none;html=1;fontSize=9;entryX=0;entryY=0.5;entryDx=0;entryDy=0;exitX=1;exitY=0.5;exitDx=0;exitDy=0;" parent="hMNfzLspHZgP8_cELCTe-1" source="Docw-y9LkuyaCuBhA3g9-64" target="Docw-y9LkuyaCuBhA3g9-71" edge="1">
                    <mxGeometry width="50" height="50" relative="1" as="geometry">
                        <mxPoint x="1540" y="264" as="sourcePoint"/>
                        <mxPoint x="1620" y="264" as="targetPoint"/>
                    </mxGeometry>
                </mxCell>
                <mxCell id="Docw-y9LkuyaCuBhA3g9-90" value="" style="endArrow=none;html=1;fontSize=9;entryX=0;entryY=0.5;entryDx=0;entryDy=0;exitX=1;exitY=0.5;exitDx=0;exitDy=0;" parent="hMNfzLspHZgP8_cELCTe-1" source="Docw-y9LkuyaCuBhA3g9-64" target="Docw-y9LkuyaCuBhA3g9-73" edge="1">
                    <mxGeometry width="50" height="50" relative="1" as="geometry">
                        <mxPoint x="1540" y="264" as="sourcePoint"/>
                        <mxPoint x="1620" y="234" as="targetPoint"/>
                    </mxGeometry>
                </mxCell>
                <mxCell id="Docw-y9LkuyaCuBhA3g9-91" value="" style="endArrow=none;html=1;fontSize=9;entryX=0;entryY=0.5;entryDx=0;entryDy=0;exitX=1;exitY=0.5;exitDx=0;exitDy=0;" parent="hMNfzLspHZgP8_cELCTe-1" source="Docw-y9LkuyaCuBhA3g9-64" target="Docw-y9LkuyaCuBhA3g9-75" edge="1">
                    <mxGeometry width="50" height="50" relative="1" as="geometry">
                        <mxPoint x="1540" y="264" as="sourcePoint"/>
                        <mxPoint x="1620" y="294" as="targetPoint"/>
                    </mxGeometry>
                </mxCell>
                <mxCell id="Docw-y9LkuyaCuBhA3g9-92" value="" style="endArrow=none;html=1;fontSize=9;entryX=0;entryY=0.5;entryDx=0;entryDy=0;exitX=1;exitY=0.5;exitDx=0;exitDy=0;" parent="hMNfzLspHZgP8_cELCTe-1" source="Docw-y9LkuyaCuBhA3g9-64" target="Docw-y9LkuyaCuBhA3g9-74" edge="1">
                    <mxGeometry width="50" height="50" relative="1" as="geometry">
                        <mxPoint x="1540" y="264" as="sourcePoint"/>
                        <mxPoint x="1620" y="324" as="targetPoint"/>
                    </mxGeometry>
                </mxCell>
                <mxCell id="Docw-y9LkuyaCuBhA3g9-93" value="" style="endArrow=none;html=1;fontSize=9;entryX=0;entryY=0.5;entryDx=0;entryDy=0;exitX=1;exitY=0.5;exitDx=0;exitDy=0;" parent="hMNfzLspHZgP8_cELCTe-1" source="Docw-y9LkuyaCuBhA3g9-64" target="Docw-y9LkuyaCuBhA3g9-70" edge="1">
                    <mxGeometry width="50" height="50" relative="1" as="geometry">
                        <mxPoint x="1540" y="264" as="sourcePoint"/>
                        <mxPoint x="1620" y="354.0000000000001" as="targetPoint"/>
                    </mxGeometry>
                </mxCell>
                <mxCell id="Docw-y9LkuyaCuBhA3g9-94" value="" style="endArrow=none;html=1;fontSize=9;entryX=0;entryY=0.5;entryDx=0;entryDy=0;exitX=1;exitY=0.5;exitDx=0;exitDy=0;" parent="hMNfzLspHZgP8_cELCTe-1" source="Docw-y9LkuyaCuBhA3g9-66" target="Docw-y9LkuyaCuBhA3g9-71" edge="1">
                    <mxGeometry width="50" height="50" relative="1" as="geometry">
                        <mxPoint x="1540" y="294" as="sourcePoint"/>
                        <mxPoint x="1620" y="294" as="targetPoint"/>
                    </mxGeometry>
                </mxCell>
                <mxCell id="Docw-y9LkuyaCuBhA3g9-95" value="" style="endArrow=none;html=1;fontSize=9;entryX=0;entryY=0.5;entryDx=0;entryDy=0;exitX=1;exitY=0.5;exitDx=0;exitDy=0;" parent="hMNfzLspHZgP8_cELCTe-1" source="Docw-y9LkuyaCuBhA3g9-66" target="Docw-y9LkuyaCuBhA3g9-72" edge="1">
                    <mxGeometry width="50" height="50" relative="1" as="geometry">
                        <mxPoint x="1540" y="294" as="sourcePoint"/>
                        <mxPoint x="1620" y="234" as="targetPoint"/>
                    </mxGeometry>
                </mxCell>
                <mxCell id="Docw-y9LkuyaCuBhA3g9-96" value="" style="endArrow=none;html=1;fontSize=9;entryX=0;entryY=0.5;entryDx=0;entryDy=0;exitX=1;exitY=0.5;exitDx=0;exitDy=0;" parent="hMNfzLspHZgP8_cELCTe-1" source="Docw-y9LkuyaCuBhA3g9-66" target="Docw-y9LkuyaCuBhA3g9-75" edge="1">
                    <mxGeometry width="50" height="50" relative="1" as="geometry">
                        <mxPoint x="1540" y="294" as="sourcePoint"/>
                        <mxPoint x="1620" y="264" as="targetPoint"/>
                    </mxGeometry>
                </mxCell>
                <mxCell id="Docw-y9LkuyaCuBhA3g9-97" value="" style="endArrow=none;html=1;fontSize=9;entryX=0;entryY=0.5;entryDx=0;entryDy=0;exitX=1;exitY=0.5;exitDx=0;exitDy=0;" parent="hMNfzLspHZgP8_cELCTe-1" source="Docw-y9LkuyaCuBhA3g9-66" target="Docw-y9LkuyaCuBhA3g9-74" edge="1">
                    <mxGeometry width="50" height="50" relative="1" as="geometry">
                        <mxPoint x="1540" y="294" as="sourcePoint"/>
                        <mxPoint x="1620" y="324" as="targetPoint"/>
                    </mxGeometry>
                </mxCell>
                <mxCell id="Docw-y9LkuyaCuBhA3g9-98" value="" style="endArrow=none;html=1;fontSize=9;entryX=0;entryY=0.5;entryDx=0;entryDy=0;exitX=1;exitY=0.5;exitDx=0;exitDy=0;" parent="hMNfzLspHZgP8_cELCTe-1" source="Docw-y9LkuyaCuBhA3g9-66" target="Docw-y9LkuyaCuBhA3g9-70" edge="1">
                    <mxGeometry width="50" height="50" relative="1" as="geometry">
                        <mxPoint x="1540" y="294" as="sourcePoint"/>
                        <mxPoint x="1620" y="354.0000000000001" as="targetPoint"/>
                    </mxGeometry>
                </mxCell>
                <mxCell id="Docw-y9LkuyaCuBhA3g9-99" value="" style="endArrow=none;html=1;fontSize=9;entryX=0;entryY=0.5;entryDx=0;entryDy=0;exitX=1;exitY=0.5;exitDx=0;exitDy=0;" parent="hMNfzLspHZgP8_cELCTe-1" source="Docw-y9LkuyaCuBhA3g9-69" target="Docw-y9LkuyaCuBhA3g9-71" edge="1">
                    <mxGeometry width="50" height="50" relative="1" as="geometry">
                        <mxPoint x="1540" y="324" as="sourcePoint"/>
                        <mxPoint x="1620" y="324" as="targetPoint"/>
                    </mxGeometry>
                </mxCell>
                <mxCell id="Docw-y9LkuyaCuBhA3g9-100" value="" style="endArrow=none;html=1;fontSize=9;entryX=0;entryY=0.5;entryDx=0;entryDy=0;exitX=1;exitY=0.5;exitDx=0;exitDy=0;" parent="hMNfzLspHZgP8_cELCTe-1" source="Docw-y9LkuyaCuBhA3g9-69" target="Docw-y9LkuyaCuBhA3g9-72" edge="1">
                    <mxGeometry width="50" height="50" relative="1" as="geometry">
                        <mxPoint x="1540" y="324" as="sourcePoint"/>
                        <mxPoint x="1620" y="234" as="targetPoint"/>
                    </mxGeometry>
                </mxCell>
                <mxCell id="Docw-y9LkuyaCuBhA3g9-101" value="" style="endArrow=none;html=1;fontSize=9;entryX=0;entryY=0.5;entryDx=0;entryDy=0;exitX=1;exitY=0.5;exitDx=0;exitDy=0;" parent="hMNfzLspHZgP8_cELCTe-1" source="Docw-y9LkuyaCuBhA3g9-69" target="Docw-y9LkuyaCuBhA3g9-73" edge="1">
                    <mxGeometry width="50" height="50" relative="1" as="geometry">
                        <mxPoint x="1540" y="324" as="sourcePoint"/>
                        <mxPoint x="1620" y="264" as="targetPoint"/>
                    </mxGeometry>
                </mxCell>
                <mxCell id="Docw-y9LkuyaCuBhA3g9-102" value="" style="endArrow=none;html=1;fontSize=9;entryX=0;entryY=0.5;entryDx=0;entryDy=0;exitX=1;exitY=0.5;exitDx=0;exitDy=0;" parent="hMNfzLspHZgP8_cELCTe-1" source="Docw-y9LkuyaCuBhA3g9-69" target="Docw-y9LkuyaCuBhA3g9-74" edge="1">
                    <mxGeometry width="50" height="50" relative="1" as="geometry">
                        <mxPoint x="1540" y="324" as="sourcePoint"/>
                        <mxPoint x="1620" y="324" as="targetPoint"/>
                    </mxGeometry>
                </mxCell>
                <mxCell id="Docw-y9LkuyaCuBhA3g9-103" value="" style="endArrow=none;html=1;fontSize=9;entryX=0;entryY=0.5;entryDx=0;entryDy=0;exitX=1;exitY=0.5;exitDx=0;exitDy=0;" parent="hMNfzLspHZgP8_cELCTe-1" source="Docw-y9LkuyaCuBhA3g9-69" target="Docw-y9LkuyaCuBhA3g9-70" edge="1">
                    <mxGeometry width="50" height="50" relative="1" as="geometry">
                        <mxPoint x="1540" y="324" as="sourcePoint"/>
                        <mxPoint x="1620" y="354.0000000000001" as="targetPoint"/>
                    </mxGeometry>
                </mxCell>
                <mxCell id="Docw-y9LkuyaCuBhA3g9-104" value="" style="endArrow=none;html=1;fontSize=9;entryX=0;entryY=0.5;entryDx=0;entryDy=0;exitX=1;exitY=0.5;exitDx=0;exitDy=0;" parent="hMNfzLspHZgP8_cELCTe-1" source="Docw-y9LkuyaCuBhA3g9-67" target="Docw-y9LkuyaCuBhA3g9-71" edge="1">
                    <mxGeometry width="50" height="50" relative="1" as="geometry">
                        <mxPoint x="1540" y="354.0000000000001" as="sourcePoint"/>
                        <mxPoint x="1620" y="354.0000000000001" as="targetPoint"/>
                    </mxGeometry>
                </mxCell>
                <mxCell id="Docw-y9LkuyaCuBhA3g9-105" value="" style="endArrow=none;html=1;fontSize=9;entryX=0;entryY=0.5;entryDx=0;entryDy=0;exitX=1;exitY=0.5;exitDx=0;exitDy=0;" parent="hMNfzLspHZgP8_cELCTe-1" source="Docw-y9LkuyaCuBhA3g9-67" target="Docw-y9LkuyaCuBhA3g9-72" edge="1">
                    <mxGeometry width="50" height="50" relative="1" as="geometry">
                        <mxPoint x="1540" y="354.0000000000001" as="sourcePoint"/>
                        <mxPoint x="1620" y="234" as="targetPoint"/>
                    </mxGeometry>
                </mxCell>
                <mxCell id="Docw-y9LkuyaCuBhA3g9-106" value="" style="endArrow=none;html=1;fontSize=9;entryX=0;entryY=0.5;entryDx=0;entryDy=0;exitX=1;exitY=0.5;exitDx=0;exitDy=0;" parent="hMNfzLspHZgP8_cELCTe-1" source="Docw-y9LkuyaCuBhA3g9-67" target="Docw-y9LkuyaCuBhA3g9-73" edge="1">
                    <mxGeometry width="50" height="50" relative="1" as="geometry">
                        <mxPoint x="1540" y="354.0000000000001" as="sourcePoint"/>
                        <mxPoint x="1620" y="264" as="targetPoint"/>
                    </mxGeometry>
                </mxCell>
                <mxCell id="Docw-y9LkuyaCuBhA3g9-107" value="" style="endArrow=none;html=1;fontSize=9;entryX=0;entryY=0.5;entryDx=0;entryDy=0;exitX=1;exitY=0.5;exitDx=0;exitDy=0;" parent="hMNfzLspHZgP8_cELCTe-1" source="Docw-y9LkuyaCuBhA3g9-67" target="Docw-y9LkuyaCuBhA3g9-75" edge="1">
                    <mxGeometry width="50" height="50" relative="1" as="geometry">
                        <mxPoint x="1540" y="354.0000000000001" as="sourcePoint"/>
                        <mxPoint x="1620" y="294" as="targetPoint"/>
                    </mxGeometry>
                </mxCell>
                <mxCell id="Docw-y9LkuyaCuBhA3g9-108" value="" style="endArrow=none;html=1;fontSize=9;entryX=0;entryY=0.5;entryDx=0;entryDy=0;exitX=1;exitY=0.5;exitDx=0;exitDy=0;" parent="hMNfzLspHZgP8_cELCTe-1" source="Docw-y9LkuyaCuBhA3g9-67" target="Docw-y9LkuyaCuBhA3g9-70" edge="1">
                    <mxGeometry width="50" height="50" relative="1" as="geometry">
                        <mxPoint x="1540" y="354.0000000000001" as="sourcePoint"/>
                        <mxPoint x="1620" y="324" as="targetPoint"/>
                    </mxGeometry>
                </mxCell>
                <mxCell id="Docw-y9LkuyaCuBhA3g9-109" value="" style="endArrow=none;html=1;fontSize=9;entryX=0;entryY=0.5;entryDx=0;entryDy=0;exitX=1;exitY=0.5;exitDx=0;exitDy=0;" parent="hMNfzLspHZgP8_cELCTe-1" source="Docw-y9LkuyaCuBhA3g9-62" target="Docw-y9LkuyaCuBhA3g9-74" edge="1">
                    <mxGeometry width="50" height="50" relative="1" as="geometry">
                        <mxPoint x="1540" y="383.9999999999999" as="sourcePoint"/>
                        <mxPoint x="1620" y="383.9999999999999" as="targetPoint"/>
                    </mxGeometry>
                </mxCell>
                <mxCell id="Docw-y9LkuyaCuBhA3g9-110" value="" style="endArrow=none;html=1;fontSize=9;entryX=0;entryY=0.5;entryDx=0;entryDy=0;exitX=1;exitY=0.5;exitDx=0;exitDy=0;" parent="hMNfzLspHZgP8_cELCTe-1" source="Docw-y9LkuyaCuBhA3g9-62" target="Docw-y9LkuyaCuBhA3g9-75" edge="1">
                    <mxGeometry width="50" height="50" relative="1" as="geometry">
                        <mxPoint x="1540" y="383.9999999999999" as="sourcePoint"/>
                        <mxPoint x="1620" y="354.0000000000001" as="targetPoint"/>
                    </mxGeometry>
                </mxCell>
                <mxCell id="Docw-y9LkuyaCuBhA3g9-111" value="" style="endArrow=none;html=1;fontSize=9;entryX=0;entryY=0.5;entryDx=0;entryDy=0;exitX=1;exitY=0.5;exitDx=0;exitDy=0;" parent="hMNfzLspHZgP8_cELCTe-1" source="Docw-y9LkuyaCuBhA3g9-62" target="Docw-y9LkuyaCuBhA3g9-73" edge="1">
                    <mxGeometry width="50" height="50" relative="1" as="geometry">
                        <mxPoint x="1540" y="383.9999999999999" as="sourcePoint"/>
                        <mxPoint x="1620" y="324" as="targetPoint"/>
                    </mxGeometry>
                </mxCell>
                <mxCell id="Docw-y9LkuyaCuBhA3g9-112" value="" style="endArrow=none;html=1;fontSize=9;entryX=0;entryY=0.5;entryDx=0;entryDy=0;exitX=1;exitY=0.5;exitDx=0;exitDy=0;" parent="hMNfzLspHZgP8_cELCTe-1" source="Docw-y9LkuyaCuBhA3g9-62" target="Docw-y9LkuyaCuBhA3g9-72" edge="1">
                    <mxGeometry width="50" height="50" relative="1" as="geometry">
                        <mxPoint x="1540" y="383.9999999999999" as="sourcePoint"/>
                        <mxPoint x="1620" y="294" as="targetPoint"/>
                    </mxGeometry>
                </mxCell>
                <mxCell id="Docw-y9LkuyaCuBhA3g9-113" value="" style="endArrow=none;html=1;fontSize=9;entryX=0;entryY=0.5;entryDx=0;entryDy=0;" parent="hMNfzLspHZgP8_cELCTe-1" target="Docw-y9LkuyaCuBhA3g9-71" edge="1">
                    <mxGeometry width="50" height="50" relative="1" as="geometry">
                        <mxPoint x="1530" y="374" as="sourcePoint"/>
                        <mxPoint x="1620" y="264" as="targetPoint"/>
                    </mxGeometry>
                </mxCell>
                <mxCell id="Docw-y9LkuyaCuBhA3g9-115" value="" style="endArrow=none;html=1;fontSize=9;entryX=0;entryY=0.5;entryDx=0;entryDy=0;exitX=1;exitY=0.5;exitDx=0;exitDy=0;" parent="hMNfzLspHZgP8_cELCTe-1" source="Docw-y9LkuyaCuBhA3g9-61" target="Docw-y9LkuyaCuBhA3g9-63" edge="1">
                    <mxGeometry width="50" height="50" relative="1" as="geometry">
                        <mxPoint x="1370" y="450" as="sourcePoint"/>
                        <mxPoint x="1420" y="400" as="targetPoint"/>
                    </mxGeometry>
                </mxCell>
                <mxCell id="Docw-y9LkuyaCuBhA3g9-116" value="" style="endArrow=none;html=1;fontSize=9;entryX=0;entryY=0.5;entryDx=0;entryDy=0;exitX=1;exitY=0.5;exitDx=0;exitDy=0;" parent="hMNfzLspHZgP8_cELCTe-1" source="Docw-y9LkuyaCuBhA3g9-61" target="Docw-y9LkuyaCuBhA3g9-64" edge="1">
                    <mxGeometry width="50" height="50" relative="1" as="geometry">
                        <mxPoint x="1455" y="310" as="sourcePoint"/>
                        <mxPoint x="1520" y="230" as="targetPoint"/>
                    </mxGeometry>
                </mxCell>
                <mxCell id="Docw-y9LkuyaCuBhA3g9-117" value="" style="endArrow=none;html=1;fontSize=9;entryX=0;entryY=0.5;entryDx=0;entryDy=0;exitX=1;exitY=0.5;exitDx=0;exitDy=0;" parent="hMNfzLspHZgP8_cELCTe-1" source="Docw-y9LkuyaCuBhA3g9-61" target="Docw-y9LkuyaCuBhA3g9-66" edge="1">
                    <mxGeometry width="50" height="50" relative="1" as="geometry">
                        <mxPoint x="1450" y="300" as="sourcePoint"/>
                        <mxPoint x="1520" y="260" as="targetPoint"/>
                    </mxGeometry>
                </mxCell>
                <mxCell id="Docw-y9LkuyaCuBhA3g9-118" value="" style="endArrow=none;html=1;fontSize=9;entryX=0;entryY=0.5;entryDx=0;entryDy=0;exitX=1;exitY=0.5;exitDx=0;exitDy=0;" parent="hMNfzLspHZgP8_cELCTe-1" source="Docw-y9LkuyaCuBhA3g9-61" target="Docw-y9LkuyaCuBhA3g9-69" edge="1">
                    <mxGeometry width="50" height="50" relative="1" as="geometry">
                        <mxPoint x="1470" y="350" as="sourcePoint"/>
                        <mxPoint x="1520" y="290" as="targetPoint"/>
                    </mxGeometry>
                </mxCell>
                <mxCell id="Docw-y9LkuyaCuBhA3g9-119" value="" style="endArrow=none;html=1;fontSize=9;entryX=0;entryY=0.5;entryDx=0;entryDy=0;exitX=1;exitY=0.5;exitDx=0;exitDy=0;" parent="hMNfzLspHZgP8_cELCTe-1" source="Docw-y9LkuyaCuBhA3g9-61" target="Docw-y9LkuyaCuBhA3g9-67" edge="1">
                    <mxGeometry width="50" height="50" relative="1" as="geometry">
                        <mxPoint x="1455" y="310" as="sourcePoint"/>
                        <mxPoint x="1520" y="320" as="targetPoint"/>
                    </mxGeometry>
                </mxCell>
                <mxCell id="Docw-y9LkuyaCuBhA3g9-120" value="" style="endArrow=none;html=1;fontSize=9;entryX=0;entryY=0.5;entryDx=0;entryDy=0;exitX=1;exitY=0.5;exitDx=0;exitDy=0;" parent="hMNfzLspHZgP8_cELCTe-1" source="Docw-y9LkuyaCuBhA3g9-61" target="Docw-y9LkuyaCuBhA3g9-62" edge="1">
                    <mxGeometry width="50" height="50" relative="1" as="geometry">
                        <mxPoint x="1455" y="310" as="sourcePoint"/>
                        <mxPoint x="1520" y="350.0000000000001" as="targetPoint"/>
                    </mxGeometry>
                </mxCell>
                <mxCell id="Docw-y9LkuyaCuBhA3g9-147" value="" style="whiteSpace=wrap;html=1;aspect=fixed;" parent="hMNfzLspHZgP8_cELCTe-1" vertex="1">
                    <mxGeometry x="570" y="269.5" width="80" height="80" as="geometry"/>
                </mxCell>
                <mxCell id="Docw-y9LkuyaCuBhA3g9-148" value="" style="whiteSpace=wrap;html=1;aspect=fixed;" parent="hMNfzLspHZgP8_cELCTe-1" vertex="1">
                    <mxGeometry x="580" y="279.5" width="80" height="80" as="geometry"/>
                </mxCell>
            </root>
        </mxGraphModel>
    </diagram>
</mxfile>